<?xml version="1.0" standalone="no"?>
<!DOCTYPE svg PUBLIC "-//W3C//DTD SVG 20010904//EN"
 "http://www.w3.org/TR/2001/REC-SVG-20010904/DTD/svg10.dtd">
<svg version="1.0" xmlns="http://www.w3.org/2000/svg"
 width="300.000000pt" height="115.000000pt" viewBox="0 0 300.000000 115.000000"
 preserveAspectRatio="xMidYMid meet">
<metadata>
Created by potrace 1.10, written by Peter Selinger 2001-2011
</metadata>
<g transform="translate(0.000000,115.000000) scale(0.100000,-0.100000)"
fill="#000000" stroke="none">
<path d="M262 993 c-7 -15 -8 -118 -3 -183 3 -40 17 -45 152 -50 l131 -5 -32
-40 c-17 -22 -78 -89 -136 -148 l-104 -108 0 -113 c0 -84 4 -117 14 -125 9 -8
107 -11 337 -9 l324 3 0 115 0 115 -117 3 c-65 1 -118 4 -118 6 0 2 29 35 65
72 36 38 91 105 122 149 l58 79 0 126 0 125 -342 3 c-318 2 -343 1 -351 -15z
m655 -26 c4 -5 8 -48 7 -95 0 -110 -26 -160 -155 -302 -112 -124 -105 -149 42
-150 52 0 90 -5 97 -12 7 -7 12 -40 12 -80 0 -57 -3 -69 -20 -78 -22 -12 -558
-8 -578 4 -16 10 -16 170 0 199 6 12 56 69 111 127 54 57 106 119 115 137 15
32 15 35 -5 54 -18 18 -37 22 -124 26 -126 6 -131 10 -127 103 l3 65 70 5
c110 9 542 6 552 -3z"/>
<path d="M1301 907 c-86 -27 -186 -161 -212 -285 -30 -148 28 -322 131 -387
102 -65 377 -73 490 -15 106 55 170 182 170 335 -1 126 -40 218 -121 280 -22
17 -46 36 -55 44 -32 28 -106 41 -238 40 -72 -1 -146 -6 -165 -12z m325 -32
c87 -26 181 -121 206 -209 50 -181 -25 -372 -169 -426 -63 -23 -234 -29 -329
-10 -83 16 -144 62 -180 137 -27 53 -29 67 -29 168 0 99 3 116 27 168 32 68
119 158 168 174 47 15 254 14 306 -2z"/>
<path d="M1462 797 c-29 -31 -38 -59 -51 -160 -38 -285 15 -471 103 -366 14
17 26 34 26 37 0 4 5 36 11 72 6 36 11 129 11 207 0 119 -3 149 -19 179 -24
49 -54 60 -81 31z m49 -23 c30 -36 21 -378 -12 -473 -15 -42 -44 -41 -53 1
-17 85 -17 200 -1 322 21 161 33 190 66 150z"/>
<path d="M2183 895 c-65 -33 -117 -90 -154 -169 -33 -73 -39 -99 -40 -189 -1
-122 51 -244 127 -296 62 -42 119 -54 269 -55 151 -1 193 8 255 52 54 39 90
87 118 155 22 52 26 77 26 157 -1 125 -26 193 -99 266 -88 88 -115 98 -295
102 -151 3 -156 3 -207 -23z m378 -32 c66 -29 124 -86 156 -151 25 -51 28 -67
28 -162 0 -131 -22 -187 -101 -259 -65 -59 -107 -71 -253 -72 -178 0 -255 28
-313 117 -112 170 -45 449 127 531 46 22 59 24 180 20 104 -3 139 -8 176 -24z"/>
<path d="M2358 793 c-48 -54 -75 -400 -39 -494 5 -13 18 -33 30 -43 17 -16 25
-17 46 -8 51 24 74 139 72 359 -2 127 -4 145 -23 170 -25 34 -64 41 -86 16z
m63 -30 c16 -40 6 -396 -12 -448 -15 -43 -42 -57 -54 -28 -18 46 -23 210 -9
318 16 128 22 155 36 172 16 20 28 16 39 -14z"/>
</g>
</svg>
